<mxfile host="app.diagrams.net" modified="2024-04-01T06:32:10.202Z" agent="Mozilla/5.0 (Windows NT 10.0; Win64; x64) AppleWebKit/537.36 (KHTML, like Gecko) Chrome/122.0.0.0 Safari/537.36 Edg/122.0.0.0" etag="rhKYbLAdxNQu3tegrjgy" version="24.2.1" type="github">
  <diagram name="Page-1" id="6VO2VrPLk1c468jGjxc4">
    <mxGraphModel dx="875" dy="569" grid="1" gridSize="10" guides="1" tooltips="1" connect="1" arrows="1" fold="1" page="1" pageScale="1" pageWidth="850" pageHeight="1100" math="0" shadow="0">
      <root>
        <mxCell id="0" />
        <mxCell id="1" parent="0" />
        <mxCell id="6OjtRYAJ5GlpUmHmKCSw-12" value="&lt;font style=&quot;font-size: 10px;&quot;&gt;Transports&lt;/font&gt;" style="shape=cube;whiteSpace=wrap;html=1;boundedLbl=1;backgroundOutline=1;darkOpacity=0.05;darkOpacity2=0.1;" vertex="1" parent="1">
          <mxGeometry x="240" y="340" width="70" height="60" as="geometry" />
        </mxCell>
        <mxCell id="6OjtRYAJ5GlpUmHmKCSw-17" value="" style="rounded=0;whiteSpace=wrap;html=1;" vertex="1" parent="1">
          <mxGeometry x="590" y="20" width="120" height="60" as="geometry" />
        </mxCell>
        <mxCell id="6OjtRYAJ5GlpUmHmKCSw-21" value="" style="rounded=0;whiteSpace=wrap;html=1;" vertex="1" parent="1">
          <mxGeometry x="600" y="30" width="120" height="60" as="geometry" />
        </mxCell>
        <mxCell id="6OjtRYAJ5GlpUmHmKCSw-22" value="Business System" style="rounded=0;whiteSpace=wrap;html=1;" vertex="1" parent="1">
          <mxGeometry x="610" y="40" width="120" height="60" as="geometry" />
        </mxCell>
        <mxCell id="6OjtRYAJ5GlpUmHmKCSw-47" value="" style="group" vertex="1" connectable="0" parent="1">
          <mxGeometry x="660" y="120" width="140" height="320" as="geometry" />
        </mxCell>
        <mxCell id="6OjtRYAJ5GlpUmHmKCSw-32" value="&lt;div style=&quot;&quot;&gt;&lt;font style=&quot;font-size: 16px;&quot;&gt;Production System&lt;/font&gt;&lt;/div&gt;" style="rounded=0;whiteSpace=wrap;html=1;verticalAlign=top;fillColor=#dae8fc;strokeColor=#6c8ebf;fontSize=14;fontStyle=1" vertex="1" parent="6OjtRYAJ5GlpUmHmKCSw-47">
          <mxGeometry width="140" height="320" as="geometry" />
        </mxCell>
        <mxCell id="6OjtRYAJ5GlpUmHmKCSw-33" value="&lt;b&gt;Design Time&lt;/b&gt;&lt;div style=&quot;font-size: 14px;&quot;&gt;(Integration Builder)&lt;/div&gt;" style="rounded=0;whiteSpace=wrap;html=1;fillColor=#d5e8d4;strokeColor=#82b366;fontSize=14;" vertex="1" parent="6OjtRYAJ5GlpUmHmKCSw-47">
          <mxGeometry y="180" width="140" height="140" as="geometry" />
        </mxCell>
        <mxCell id="6OjtRYAJ5GlpUmHmKCSw-34" value="&lt;font style=&quot;font-size: 14px;&quot;&gt;&lt;b&gt;Runtime&lt;/b&gt;&lt;/font&gt;&lt;div style=&quot;font-size: 14px;&quot;&gt;&lt;font style=&quot;font-size: 14px;&quot;&gt;(Integration Engine/Adapter Engine)&lt;/font&gt;&lt;/div&gt;" style="rounded=0;whiteSpace=wrap;html=1;fillColor=#dae8fc;strokeColor=#6c8ebf;" vertex="1" parent="6OjtRYAJ5GlpUmHmKCSw-47">
          <mxGeometry y="50" width="140" height="130" as="geometry" />
        </mxCell>
        <mxCell id="6OjtRYAJ5GlpUmHmKCSw-29" value="" style="group" vertex="1" connectable="0" parent="1">
          <mxGeometry x="350" y="120" width="460" height="400" as="geometry" />
        </mxCell>
        <mxCell id="6OjtRYAJ5GlpUmHmKCSw-4" value="&lt;div style=&quot;&quot;&gt;&lt;font style=&quot;font-size: 16px;&quot;&gt;Test System&lt;/font&gt;&lt;/div&gt;" style="rounded=0;whiteSpace=wrap;html=1;verticalAlign=top;fillColor=#dae8fc;strokeColor=#6c8ebf;fontSize=14;fontStyle=1" vertex="1" parent="6OjtRYAJ5GlpUmHmKCSw-29">
          <mxGeometry width="140" height="320" as="geometry" />
        </mxCell>
        <mxCell id="6OjtRYAJ5GlpUmHmKCSw-27" value="&lt;b&gt;Design Time&lt;/b&gt;&lt;div style=&quot;font-size: 14px;&quot;&gt;(Integration Builder)&lt;/div&gt;" style="rounded=0;whiteSpace=wrap;html=1;fillColor=#d5e8d4;strokeColor=#82b366;fontSize=14;" vertex="1" parent="6OjtRYAJ5GlpUmHmKCSw-29">
          <mxGeometry y="180" width="140" height="140" as="geometry" />
        </mxCell>
        <mxCell id="6OjtRYAJ5GlpUmHmKCSw-28" value="&lt;font style=&quot;font-size: 14px;&quot;&gt;&lt;b&gt;Runtime&lt;/b&gt;&lt;/font&gt;&lt;div style=&quot;font-size: 14px;&quot;&gt;&lt;font style=&quot;font-size: 14px;&quot;&gt;(Integration Engine/Adapter Engine)&lt;/font&gt;&lt;/div&gt;" style="rounded=0;whiteSpace=wrap;html=1;fillColor=#dae8fc;strokeColor=#6c8ebf;" vertex="1" parent="6OjtRYAJ5GlpUmHmKCSw-29">
          <mxGeometry y="50" width="140" height="130" as="geometry" />
        </mxCell>
        <mxCell id="6OjtRYAJ5GlpUmHmKCSw-13" value="&lt;font style=&quot;font-size: 10px;&quot;&gt;Transports&lt;/font&gt;" style="shape=cube;whiteSpace=wrap;html=1;boundedLbl=1;backgroundOutline=1;darkOpacity=0.05;darkOpacity2=0.1;" vertex="1" parent="6OjtRYAJ5GlpUmHmKCSw-29">
          <mxGeometry x="190" y="220" width="70" height="60" as="geometry" />
        </mxCell>
        <mxCell id="6OjtRYAJ5GlpUmHmKCSw-48" value="" style="group;" vertex="1" connectable="0" parent="1">
          <mxGeometry x="50" y="120" width="140" height="320" as="geometry" />
        </mxCell>
        <mxCell id="6OjtRYAJ5GlpUmHmKCSw-49" value="&lt;div style=&quot;&quot;&gt;&lt;font style=&quot;font-size: 16px;&quot;&gt;Development System&lt;/font&gt;&lt;/div&gt;" style="rounded=0;whiteSpace=wrap;html=1;verticalAlign=top;fillColor=#dae8fc;strokeColor=#6c8ebf;fontSize=14;fontStyle=1" vertex="1" parent="6OjtRYAJ5GlpUmHmKCSw-48">
          <mxGeometry width="140" height="320" as="geometry" />
        </mxCell>
        <mxCell id="6OjtRYAJ5GlpUmHmKCSw-50" value="&lt;b&gt;Design Time&lt;/b&gt;&lt;div style=&quot;font-size: 14px;&quot;&gt;(Integration Builder)&lt;/div&gt;" style="rounded=0;whiteSpace=wrap;html=1;fillColor=#d5e8d4;strokeColor=#82b366;fontSize=14;" vertex="1" parent="6OjtRYAJ5GlpUmHmKCSw-48">
          <mxGeometry y="180" width="140" height="140" as="geometry" />
        </mxCell>
        <mxCell id="6OjtRYAJ5GlpUmHmKCSw-51" value="&lt;font style=&quot;font-size: 14px;&quot;&gt;&lt;b&gt;Runtime&lt;/b&gt;&lt;/font&gt;&lt;div style=&quot;font-size: 14px;&quot;&gt;&lt;font style=&quot;font-size: 14px;&quot;&gt;(Integration Engine/Adapter Engine)&lt;/font&gt;&lt;/div&gt;" style="rounded=0;whiteSpace=wrap;html=1;fillColor=#dae8fc;strokeColor=#6c8ebf;" vertex="1" parent="6OjtRYAJ5GlpUmHmKCSw-48">
          <mxGeometry y="50" width="140" height="130" as="geometry" />
        </mxCell>
        <mxCell id="6OjtRYAJ5GlpUmHmKCSw-10" value="&amp;nbsp; &amp;nbsp; &amp;nbsp; &amp;nbsp; &amp;nbsp; &amp;nbsp; &amp;nbsp; Development&amp;nbsp; &amp;nbsp; &amp;nbsp; &amp;nbsp; &amp;nbsp; &amp;nbsp; &amp;nbsp; &amp;nbsp; &amp;nbsp; &amp;nbsp; &amp;nbsp; &amp;nbsp; &amp;nbsp; &amp;nbsp; &amp;nbsp; &amp;nbsp; &amp;nbsp; &amp;nbsp; &amp;nbsp; &amp;nbsp; &amp;nbsp; &amp;nbsp; &amp;nbsp; &amp;nbsp; &amp;nbsp; &amp;nbsp; &amp;nbsp; &amp;nbsp; &amp;nbsp; &amp;nbsp; &amp;nbsp; &amp;nbsp;Consolidation/Test&amp;nbsp; &amp;nbsp; &amp;nbsp; &amp;nbsp; &amp;nbsp; &amp;nbsp; &amp;nbsp; &amp;nbsp; &amp;nbsp; &amp;nbsp; &amp;nbsp; &amp;nbsp; &amp;nbsp; &amp;nbsp; &amp;nbsp; &amp;nbsp; &amp;nbsp; &amp;nbsp; &amp;nbsp; &amp;nbsp; &amp;nbsp; &amp;nbsp; &amp;nbsp; &amp;nbsp; &amp;nbsp; &amp;nbsp; &amp;nbsp; &amp;nbsp; &amp;nbsp; Production" style="rounded=0;whiteSpace=wrap;html=1;align=left;fillColor=#f5f5f5;strokeColor=#666666;fontColor=#333333;" vertex="1" parent="1">
          <mxGeometry x="40" y="410" width="760" height="60" as="geometry" />
        </mxCell>
      </root>
    </mxGraphModel>
  </diagram>
</mxfile>
